<svg width="50" height="50" viewBox="0 0 50 50" fill="none" xmlns="http://www.w3.org/2000/svg">
<circle cx="25" cy="25" r="25" fill="#175BFF"/>
<path d="M17.5951 18.0263C18.067 17.5544 18.832 17.5544 19.3039 18.0263L24.9998 23.7222L30.6958 18.0263C31.1676 17.5544 31.9327 17.5544 32.4046 18.0263C32.8764 18.4981 32.8764 19.2632 32.4046 19.735L26.7086 25.431L32.4046 31.1269C32.8764 31.5988 32.8764 32.3638 32.4046 32.8357C31.9327 33.3076 31.1676 33.3075 30.6958 32.8357L24.9998 27.1397L19.3039 32.8357C18.832 33.3075 18.067 33.3075 17.5951 32.8357C17.1232 32.3638 17.1232 31.5988 17.5951 31.1269L23.2911 25.431L17.5951 19.735C17.1233 19.2632 17.1232 18.4981 17.5951 18.0263Z" fill="white"/>
</svg>
