<svg width="52" height="53" viewBox="0 0 52 53" fill="none" xmlns="http://www.w3.org/2000/svg">
<circle cx="26" cy="26.7295" r="25.5" fill="white" stroke="#D9D9D9"/>
<path d="M15.5278 27.1606C15.5278 26.4933 16.0688 25.9523 16.7361 25.9523L24.7914 25.9524L24.7914 17.8971C24.7914 17.2298 25.3324 16.6888 25.9997 16.6888C26.667 16.6888 27.208 17.2297 27.208 17.8971L27.208 25.9523L35.2632 25.9523C35.9306 25.9523 36.4715 26.4933 36.4716 27.1606C36.4716 27.828 35.9306 28.3689 35.2633 28.3689L27.208 28.3689L27.208 36.4242C27.208 37.0915 26.667 37.6325 25.9997 37.6325C25.3324 37.6325 24.7914 37.0915 24.7914 36.4242L24.7914 28.3689L16.7361 28.3689C16.0688 28.3689 15.5278 27.828 15.5278 27.1606Z" fill="#232323"/>
</svg>
