<svg width="21" height="20" viewBox="0 0 21 20" fill="none" xmlns="http://www.w3.org/2000/svg">
<path fill-rule="evenodd" clip-rule="evenodd" d="M9.23842 0C11.4224 0 13.6068 0.829259 15.2677 2.49001C18.3506 5.57258 18.5711 10.4577 15.9318 13.7995L20.422 18.2894C20.5152 18.3822 20.589 18.4926 20.6395 18.6141C20.6899 18.7355 20.7158 18.8658 20.7158 18.9973C20.7158 19.1288 20.6899 19.2591 20.6395 19.3805C20.589 19.502 20.5152 19.6124 20.422 19.7052C20.3291 19.7987 20.2186 19.8728 20.097 19.9234C19.9753 19.974 19.8448 20 19.713 20C19.5813 20 19.4508 19.974 19.3291 19.9234C19.2075 19.8728 19.097 19.7987 19.0041 19.7052L14.5138 15.2154C11.1712 17.8505 6.28636 17.6342 3.20522 14.5534C-0.116598 11.2319 -0.112688 5.81152 3.20922 2.49001C4.87012 0.829259 7.05444 0 9.23842 0ZM9.23642 1.9842C7.56734 1.9829 5.89798 2.6214 4.61923 3.90004C2.06172 6.45731 2.06172 10.5802 4.61923 13.1375C7.17674 15.6948 11.2961 15.6909 13.8536 13.1337C16.4111 10.5764 16.4111 6.4633 13.8536 3.90603C12.5749 2.62739 10.9055 1.9855 9.23642 1.9842Z" fill="white"/>
</svg>
